<?xml version="1.0" encoding="utf-8"?>
<!-- Generator: Adobe Illustrator 16.0.0, SVG Export Plug-In . SVG Version: 6.00 Build 0)  -->
<svg version="1.2" baseProfile="tiny" xmlns="http://www.w3.org/2000/svg" xmlns:xlink="http://www.w3.org/1999/xlink" x="0px"
	 y="0px" width="150px" height="150px" viewBox="0 0 150 150" xml:space="preserve">
<g id="star" display="none">
	<path display="inline" d="M70.477,10.27c2.487-3.629,6.558-3.629,9.045,0l18.768,27.382c2.487,3.629,7.976,7.617,12.196,8.861
		l31.841,9.386c4.221,1.244,5.479,5.115,2.795,8.603l-20.242,26.309c-2.684,3.487-4.78,9.939-4.659,14.338l0.911,33.184
		c0.121,4.398-3.172,6.791-7.317,5.316l-31.277-11.123c-4.146-1.475-10.929-1.475-15.075,0l-31.277,11.123
		c-4.146,1.475-7.438-0.918-7.317-5.316l0.913-33.184c0.121-4.398-1.975-10.851-4.658-14.338L4.878,64.501
		c-2.683-3.487-1.425-7.358,2.795-8.603l31.842-9.386c4.22-1.244,9.708-5.232,12.196-8.861L70.477,10.27z"/>
</g>
<g id="mastery1" display="none">
	<path display="inline" d="M70.477,10.27c2.487-3.629,6.558-3.629,9.045,0l18.768,27.382c2.487,3.629,7.976,7.617,12.196,8.861
		l31.841,9.386c4.221,1.244,5.479,5.115,2.795,8.603l-20.242,26.309c-2.684,3.487-4.78,9.939-4.659,14.338l0.911,33.184
		c0.121,4.398-3.172,6.791-7.317,5.316l-31.277-11.123c-4.146-1.475-10.929-1.475-15.075,0l-31.277,11.123
		c-4.146,1.475-7.438-0.918-7.317-5.316l0.913-33.184c0.121-4.398-1.975-10.851-4.658-14.338L4.878,64.501
		c-2.683-3.487-1.425-7.358,2.795-8.603l31.842-9.386c4.22-1.244,9.708-5.232,12.196-8.861L70.477,10.27z"/>
</g>
<g id="mastery2" display="none">
	<path display="inline" d="M40.477,15.935c2.487-3.629,6.558-3.63,9.045,0l4.861,7.093c2.488,3.629,7.976,7.617,12.196,8.861
		l8.247,2.431c4.22,1.244,5.478,5.115,2.794,8.603l-5.243,6.814c-2.683,3.487-4.779,9.939-4.659,14.337l0.236,8.594
		c0.121,4.398-3.172,6.791-7.318,5.316l-8.101-2.881c-4.146-1.475-10.93-1.475-15.075,0l-8.101,2.881
		c-4.146,1.475-7.438-0.918-7.317-5.316l0.236-8.594c0.121-4.398-1.975-10.85-4.658-14.337l-5.243-6.814
		c-2.683-3.487-1.425-7.358,2.795-8.602l8.248-2.432c4.22-1.244,9.708-5.231,12.196-8.861L40.477,15.935z"/>
	<path display="inline" d="M100.478,75.935c2.487-3.629,6.558-3.629,9.045,0l4.861,7.093c2.487,3.629,7.976,7.616,12.196,8.86
		l8.246,2.432c4.221,1.244,5.479,5.115,2.795,8.603l-5.242,6.813c-2.684,3.487-4.78,9.939-4.659,14.338l0.236,8.594
		c0.121,4.398-3.172,6.791-7.317,5.316l-8.102-2.881c-4.146-1.475-10.929-1.475-15.074,0l-8.103,2.881
		c-4.146,1.475-7.438-0.918-7.317-5.316l0.237-8.594c0.121-4.398-1.976-10.851-4.659-14.338l-5.243-6.813
		c-2.683-3.487-1.425-7.358,2.795-8.603l8.248-2.432c4.221-1.244,9.709-5.231,12.196-8.86L100.478,75.935z"/>
</g>
<g id="mastery3" display="none">
	<path display="inline" d="M70.477,23.068c2.487-3.629,6.558-3.63,9.045,0l2.08,3.035c2.487,3.629,7.976,7.617,12.196,8.861
		l3.527,1.04c4.221,1.244,5.479,5.115,2.796,8.603l-2.244,2.916c-2.683,3.487-4.779,9.939-4.658,14.337l0.102,3.676
		c0.121,4.398-3.172,6.791-7.317,5.316l-3.467-1.232c-4.146-1.475-10.93-1.475-15.075,0l-3.466,1.232
		c-4.146,1.475-7.438-0.918-7.317-5.316l0.101-3.676c0.121-4.398-1.975-10.85-4.658-14.337l-2.243-2.916
		c-2.683-3.487-1.425-7.358,2.795-8.602l3.529-1.041c4.22-1.244,9.708-5.231,12.196-8.861L70.477,23.068z"/>
	<path display="inline" d="M30.478,83.068c2.487-3.63,6.557-3.63,9.045-0.001l2.08,3.035c2.488,3.629,7.976,7.616,12.197,8.86
		l3.527,1.04c4.221,1.244,5.479,5.115,2.795,8.603l-2.243,2.915c-2.683,3.487-4.779,9.939-4.659,14.338l0.102,3.676
		c0.121,4.398-3.172,6.791-7.318,5.316l-3.466-1.232c-4.146-1.475-10.93-1.475-15.075,0l-3.466,1.232
		c-4.146,1.475-7.438-0.918-7.317-5.316l0.101-3.676c0.121-4.398-1.975-10.851-4.658-14.338l-2.243-2.915
		c-2.683-3.487-1.425-7.358,2.795-8.603l3.528-1.04c4.221-1.244,9.709-5.231,12.196-8.861L30.478,83.068z"/>
	<path display="inline" d="M110.478,83.067c2.487-3.629,6.558-3.629,9.045,0l2.08,3.035c2.487,3.629,7.976,7.616,12.196,8.86
		l3.527,1.04c4.221,1.244,5.479,5.115,2.796,8.603l-2.244,2.915c-2.683,3.487-4.779,9.939-4.658,14.338l0.102,3.676
		c0.121,4.398-3.172,6.791-7.317,5.316l-3.467-1.232c-4.146-1.475-10.929-1.475-15.074,0l-3.467,1.232
		c-4.146,1.475-7.438-0.918-7.317-5.316l0.102-3.676c0.121-4.398-1.976-10.851-4.658-14.338l-2.244-2.915
		c-2.683-3.487-1.425-7.358,2.796-8.603l3.528-1.04c4.221-1.244,9.709-5.231,12.196-8.86L110.478,83.067z"/>
</g>
<g id="fan" display="none">
	<g display="inline">
		<circle cx="75" cy="56" r="47"/>
		<path d="M131.4,150H18.6c0,0,0-56.4,56.4-56.4C131.4,93.6,131.4,150,131.4,150z"/>
	</g>
</g>
<g id="inspiration" display="none">
	<g display="inline">
		<g>
			<path d="M75,116.938C51.813,117.166,32.833,98.188,33.061,75C32.833,51.813,51.813,32.833,75,33.061
				C98.188,32.833,117.166,51.813,116.938,75C117.166,98.188,98.188,117.166,75,116.938z"/>
		</g>
		<g>
			<path d="M129.346,86.116c-2.135,0.131-3.944-2.021-3.898-4.811c0.065-4.195,0.065-8.416,0-12.611
				c-0.046-2.791,1.764-4.941,3.898-4.811c8.057,0.458,14.208,1.045,17.37,1.762C147.563,65.852,148,67.808,148,70
				c0,3.333,0,6.667,0,10c0,2.192-0.437,4.148-1.284,4.354C143.554,85.071,137.402,85.659,129.346,86.116z"/>
		</g>
		<g>
			<path d="M118.664,45.288c-1.134-0.105-2.327-0.676-3.289-1.689c-2.905-3.058-5.915-6.067-8.973-8.972
				c-0.974-0.925-1.581-2.114-1.69-3.291c-0.108-1.177,0.287-2.243,1.086-2.973c6.297-5.755,11.575-10.399,16.15-14.395
				c0.609-0.531,1.535-0.704,2.535-0.556c0.999,0.148,2.072,0.621,2.98,1.408c2.741,2.378,5.338,4.975,7.716,7.715
				c0.757,0.872,1.255,1.945,1.409,2.981c0.152,1.037-0.046,1.95-0.557,2.535c-3.996,4.575-8.641,9.854-14.396,16.15
				C120.878,45.034,119.8,45.393,118.664,45.288z"/>
		</g>
		<g>
			<path d="M68.694,24.553c-2.791,0.046-4.941-1.764-4.811-3.898c0.458-8.057,1.045-14.208,1.762-17.37C65.852,2.437,67.808,2,70,2
				c3.333,0,6.667,0,10,0c2.192,0,4.148,0.437,4.354,1.284c0.717,3.162,1.305,9.313,1.762,17.37
				c0.131,2.134-2.021,3.944-4.811,3.898C77.11,24.487,72.89,24.487,68.694,24.553z"/>
		</g>
		<g>
			<path d="M124.482,136.589c-0.999,0.147-1.926-0.024-2.534-0.557c-4.575-3.996-9.854-8.641-16.15-14.396
				c-1.668-1.511-1.428-4.329,0.604-6.262c3.058-2.905,6.067-5.915,8.973-8.973c0.962-1.014,2.155-1.585,3.289-1.69
				c1.136-0.105,2.214,0.254,2.973,1.086c5.755,6.297,10.399,11.575,14.396,16.15c1.054,1.219,0.716,3.702-0.853,5.516
				c-2.378,2.741-4.975,5.338-7.716,7.716C126.557,135.968,125.482,136.439,124.482,136.589z"/>
		</g>
		<g>
			<path d="M3.284,84.354C2.437,84.148,2,82.192,2,80c0-3.333,0-6.667,0-10c0-2.192,0.437-4.148,1.284-4.354
				c3.162-0.717,9.313-1.304,17.37-1.762c2.134-0.131,3.944,2.02,3.898,4.811c-0.065,4.195-0.065,8.416,0,12.611
				c0.046,2.79-1.764,4.941-3.898,4.811C12.597,85.659,6.446,85.071,3.284,84.354z"/>
		</g>
		<g>
			<path d="M31.335,45.287c-1.136,0.105-2.213-0.253-2.973-1.085c-5.755-6.296-10.399-11.575-14.395-16.15
				c-1.053-1.219-0.715-3.702,0.853-5.517c2.377-2.741,4.974-5.337,7.715-7.715c0.908-0.788,1.981-1.26,2.981-1.409
				c1-0.148,1.926,0.024,2.535,0.556c4.575,3.996,9.854,8.641,16.15,14.396c0.799,0.73,1.194,1.795,1.085,2.973
				c-0.108,1.176-0.716,2.366-1.69,3.291c-3.058,2.905-6.067,5.914-8.972,8.972C33.663,44.61,32.47,45.182,31.335,45.287z"/>
		</g>
		<g>
			<path d="M25.516,136.588c-1.037-0.153-2.11-0.651-2.981-1.408c-2.741-2.378-5.337-4.975-7.715-7.716
				c-1.568-1.814-1.906-4.298-0.853-5.516c3.996-4.575,8.641-9.854,14.396-16.15c0.73-0.799,1.795-1.194,2.973-1.086l0,0
				c1.176,0.109,2.366,0.717,3.291,1.69c2.905,3.058,5.914,6.067,8.972,8.973c2.032,1.932,2.271,4.751,0.604,6.262
				c-6.296,5.755-11.575,10.399-16.15,14.396C27.466,136.543,26.553,136.741,25.516,136.588L25.516,136.588z"/>
		</g>
		<g>
			<path d="M70,148c-2.192,0-4.148-0.437-4.354-1.284c-0.717-3.162-1.304-9.313-1.762-17.37c-0.131-2.135,2.02-3.944,4.811-3.898
				c4.195,0.065,8.416,0.065,12.611,0c2.791-0.046,4.941,1.764,4.811,3.898c-0.457,8.057-1.045,14.208-1.762,17.37
				C84.148,147.563,82.192,148,80,148C76.667,148,73.333,148,70,148z"/>
		</g>
	</g>
</g>
<g id="performance" display="none">
	<circle display="inline" cx="108.685" cy="41.315" r="35.982"/>
	<g display="inline">
		<path d="M88.96,78.367L71.633,61.04c-3.827-3.828-9.606-4.256-12.905-0.957L7.109,117.94c-2.545,2.547-2.31,6.932,0.457,9.988
			c-1.394,1.761-2.232,3.982-2.232,6.403c0,5.708,4.627,10.335,10.335,10.335c2.421,0,4.643-0.839,6.404-2.232
			c3.055,2.767,7.441,3.003,9.987,0.456l57.857-51.618C93.218,87.974,92.788,82.195,88.96,78.367z M68.213,87.949L51.95,104.213
			c-0.781,0.781-2.047,0.781-2.829,0l-3.536-3.535c-0.781-0.781-0.781-2.048,0-2.828l16.264-16.264c0.781-0.781,2.047-0.781,2.829,0
			l3.535,3.535C68.994,85.902,68.994,87.168,68.213,87.949z"/>
	</g>
</g>
<g id="worth_share" display="none">
	<g display="inline">
		<path fill-rule="evenodd" d="M93.502,48.546c-0.534,6.752-1.277,13.154-5.149,18.775c-4.092,5.94-8.998,11.175-14.848,15.354
			c-5.687,4.063-11.622,7.797-17.598,11.429c-3.985,2.423-7.853,2.072-12.385,0.13c-7.34-3.143-13.625-7.658-19.806-12.439
			C14.603,74.746,8.055,65.971,7.06,54.105c-0.427-5.088-0.664-10.382,0.259-15.352c1.689-9.1,8.322-14.138,16.848-16.174
			c8.574-2.048,16.552,0.582,23.744,5.369c1.874,1.247,2.86,0.895,4.35-0.427c4.696-4.168,10.049-6.841,16.556-6.332
			c3.719,0.292,7.442-0.607,11.134,1.371c5.98,3.204,8.817,8.584,10.897,14.462C92.153,40.714,92.646,44.695,93.502,48.546z"/>
		<path fill-rule="evenodd" d="M95.882,128.873c-5.693-0.857-11.363-1.96-17.087-2.475c-3.112-0.282-4.598-2.336-5.662-4.397
			c-3.114-6.035-5.83-12.28-8.576-18.498c-0.662-1.497-0.908-3.195-1.219-4.826c-0.494-2.588,0.684-4.037,2.964-5.429
			c11.014-6.725,20.618-15.129,26.883-26.52c2.337-4.25,2.841-9.533,4.022-14.383c0.604-2.479,1.553-3.107,3.591-1.533
			c1.841,1.421,3.749,2.996,4.979,4.917c2.343,3.661,4.429,7.523,6.222,11.484c1.204,2.659,3.415,2.321,5.437,2.581
			c3.238,0.416,6.843-0.178,9.685,1.055c4.103,1.779,8.173,4.293,11.346,7.42c5.992,5.908,4.827,13.708,4.631,21.322
			c-0.169,6.548-3.824,11.314-7.737,15.287c-3.979,4.041-9.501,6.769-14.706,9.347C112.937,128.048,104.47,128.446,95.882,128.873z"
			/>
	</g>
</g>
<g id="encore" display="none">
	<g display="inline">
		<path fill-rule="evenodd" d="M96.044,142.61c-30.043,0-60.085-0.029-90.127,0.063c-2.109,0.006-2.596-0.479-2.417-2.491
			c0.212-2.375,0.049-4.784,0.049-7.182c5.288-4.936,5.279-11.763,6.494-18.157c1.081-5.685,1.504-11.515,3.872-16.919
			c0.9-2.054,2.041-3.882,3.622-5.463c13.237-13.234,26.452-26.49,39.718-39.691c4.401-4.38,8.953-4.574,12.6-0.708
			c2.549,2.703,2.899,5.887,1.016,9.074c-0.775,1.312-1.876,2.335-2.937,3.396c-9.34,9.346-18.684,18.686-28.024,28.031
			c-0.636,0.636-1.338,1.22-1.809,1.997c-0.575,0.946-0.191,1.724,0.533,2.394c0.652,0.604,1.383,0.804,2.179,0.283
			c0.845-0.556,1.496-1.325,2.203-2.031c18.971-18.965,37.952-37.92,56.886-56.921c2.08-2.086,4.239-3.478,7.352-3.334
			c5.776,0.265,9.213,6.012,6.57,11.196c-0.743,1.457-1.864,2.591-2.996,3.724c-9.13,9.13-18.263,18.26-27.393,27.39
			c-0.353,0.354-0.77,0.665-1.048,1.071c-0.727,1.053-2.967,1.905-1.68,3.278c1.384,1.474,2.358-0.688,3.207-1.532
			c11.512-11.421,22.974-22.89,34.414-34.38c1.858-1.867,3.852-3.078,6.604-2.924c3.06,0.171,5.365,1.399,6.804,4.151
			c1.43,2.736,1.302,5.377-0.421,7.947c-0.789,1.175-1.807,2.139-2.796,3.13c-10.686,10.689-21.388,21.359-32.034,32.089
			c-0.925,0.933-3.083,1.969-1.469,3.549c1.458,1.425,2.42-0.657,3.294-1.523c10.727-10.647,21.399-21.347,32.089-32.035
			c1.204-1.203,2.39-2.424,3.962-3.173c3.001-1.43,5.859-1.175,8.439,0.903c2.646,2.128,3.72,4.861,2.835,8.266
			c-0.622,2.395-1.847,4.342-3.614,6.095c-10.799,10.715-21.548,21.483-32.271,32.276c-0.748,0.754-2.561,1.622-1.527,2.723
			c1.052,1.121,2.046-0.576,2.82-1.342c6.755-6.695,13.467-13.428,20.185-20.158c1.28-1.282,2.593-2.502,4.297-3.214
			c3.208-1.337,6.76-0.396,9.185,2.45c2.251,2.644,2.423,5.813,0.493,8.885c-0.7,1.112-1.639,2.018-2.559,2.938
			c-14.437,14.44-28.879,28.873-43.305,43.324C98.342,141.054,97.289,141.948,96.044,142.61z"/>
		<path fill-rule="evenodd" d="M3.548,62.729c3.578-3.477,7.19-6.918,10.725-10.437c9.292-9.252,18.529-18.558,27.83-27.8
			c4.595-4.567,11.238-3.029,12.89,2.944c0.816,2.954-0.594,5.169-2.577,7.152c-10.123,10.119-20.19,20.294-30.409,30.315
			c-1.978,1.94-1.784,3.098,0.12,4.772c1.338,1.177,2.157,0.913,3.249-0.216c2.643-2.736,5.367-5.392,8.055-8.082
			C50.697,44.108,67.963,26.835,85.236,9.569c2.207-2.206,6.094-2.886,8.751-1.584c2.487,1.219,4.176,4.244,3.834,7.138
			c-0.214,1.803-1.061,3.348-2.365,4.65c-7.724,7.705-15.444,15.415-23.133,23.154c-0.854,0.86-1.459,1.009-2.765,0.648
			c-5.812-1.605-11.521-1.278-16.039,3.182c-14.033,13.85-27.954,27.816-41.838,41.816C7.956,92.33,6.51,97.284,5.354,102.3
			c-0.648,2.815-0.708,5.758-1.805,8.477C3.548,94.762,3.548,78.745,3.548,62.729z"/>
		<path fill-rule="evenodd" d="M107.079,28.626c-5.14-1.005-8.869,1.368-12.286,4.956c-5.098,5.351-10.404,10.503-15.676,15.685
			c-0.472,0.463-1.43,2.112-1.852,0.757c-0.519-1.658-4.334-2.221-1.942-4.651c9.527-9.683,19.146-19.28,28.819-28.816
			c2.251-2.218,7.802-1.62,9.752,0.755c2.778,3.379,2.484,8.104-0.707,10.531C111.319,29.263,109.114,28.054,107.079,28.626z"/>
		<path fill-rule="evenodd" d="M123.889,36.302c-4.258,1.832-4.791-2.972-7.118-4.907c-0.742-0.615,0.078-1.197,0.651-1.604
			c3.897-2.778,9.409-0.938,11.144,3.509c0.943,2.415,0.478,3.294-2.103,3.014C125.774,36.239,125.073,36.302,123.889,36.302z"/>
	</g>
</g>
<g id="Layer_14" display="none">
	<g display="inline">
		<path fill-rule="evenodd" d="M60.079,147.5c25.155-16.162,79.2-62.26,78.203-62.872c1.977-1.856,5.17-4.92,7.094-6.811
			c-0.015,0.018,1.463-1.442-3.314-8.198c-4.836-6.69-6.386-5.149-6.369-5.168c-1.999,1.981-5.303,5.2-7.34,7.153
			c-6.728,6.471-13.593,12.845-20.578,19.133c-2.11,1.897-5.03,2.128-6.478,0.535c-1.448-1.596-0.901-4.485,1.215-6.437
			c11.014-10.145,21.798-20.464,32.304-30.996c2.021-2.021,5.302-5.347,7.291-7.391c-0.021,0.025,1.532-1.578-3.539-7.96
			c-5.152-6.291-6.762-4.66-6.738-4.687c-2.05,2.075-5.415,5.458-7.479,7.52c-9.277,9.279-18.65,18.475-28.103,27.602
			c-2.102,2.026-4.853,2.597-6.116,1.28c-1.261-1.316-1.472-4.977,0.617-7.034c11.163-10.966,22.275-21.979,33.326-33.051
			c2.07-2.075,5.455-5.474,7.52-7.553c-0.027,0.026,1.599-1.616-4.059-7.327c-5.754-5.615-7.401-3.997-7.374-4.023
			c-2.087,2.054-5.496,5.421-7.576,7.483c-11.734,11.629-23.388,23.345-34.973,35.135c-2.055,2.089-5.002,2.563-6.562,1.061
			c-1.559-1.502-1.194-4.446,0.828-6.546c9.069-9.404,18.217-18.717,27.457-27.925c2.062-2.057,5.446-5.411,7.521-7.453
			c-0.024,0.023,1.604-1.578-4.711-6.723c-6.399-5.065-7.994-3.52-7.972-3.541c-2.039,1.982-5.352,5.255-7.359,7.272
			c-16.621,16.57-32.682,33.867-48.333,51.719c-1.903,2.165-4.39,3.018-5.535,1.883c-1.142-1.134-1.67-4.936,0.164-7.114
			c6.249-7.387,12.579-14.652,19.003-21.783c1.893-2.104,5.009-5.521,6.926-7.592c-0.011,0.009,1.456-1.566-4.778-6.673
			c-6.27-5.072-7.638-3.537-7.628-3.544c-1.807,2.03-4.737,5.393-6.513,7.473c-0.165-0.276-23.281,28.239-27.403,34.3
			C8.619,64.366,1.404,89.164,5.785,94.286c2.717,2.113,14.98,16.888,28.14,29.423C46.813,136.532,60.597,147.117,60.079,147.5z"/>
	</g>
</g>
<g id="performance2" display="none">
	<g display="inline">
		<path fill-rule="evenodd" d="M33.571,132.718c1.062-8.382,3.579-16.336,5.999-24.32c3.691-12.186,6.278-24.683,10.563-36.714
			c0.913-2.561,0.159-5.708,0.21-8.585c0.071-4.011,2.661-6.245,6.636-6.698c8.09-0.922,14.642,3.373,21.693,5.957
			c3.492,1.279,6.773,3.142,10.277,4.38c9.604,3.393,11.591,10.854,3.481,16.78c-5.596,4.09-7.761,9.835-10.875,15.177
			c-5.253,9.009-7.871,19.233-12.431,28.566c-2.691,5.509-4.319,12.184-11.709,13.911c-0.614,0.144-1.067,1.126-1.524,1.77
			c-2.655,3.741-7.697,5.591-12.555,3.971c-4.001-1.334-6.614-4.282-6.805-8.762C36.436,135.873,35.389,134.188,33.571,132.718z
			 M48.84,92.645c3.011,1.382,5.688,3.242,9.239,3.17c1.87-5.919,3.653-11.571,5.53-17.514c-2.971-1.213-5.855-2.389-9.044-3.691
			C52.678,80.555,50.787,86.512,48.84,92.645z"/>
		<path fill-rule="evenodd" d="M88.623,59.249C73.302,59.82,59.271,47.306,59.381,30.821c0.1-14.794,12.307-29.302,29.779-28.269
			c16.348,0.967,27.464,11.681,27.267,27.871C116.226,46.892,108.755,58.04,88.623,59.249z"/>
	</g>
</g>
<g id="soul_link" display="none">
	<g display="inline">
		<path fill-rule="evenodd" d="M33.883,75.261c-31.905-2.815-20.377,64.866,15.452,58.846c18.13-3.047,26.367-14.226,25.288-32.752
			c-1.113-19.119-15.586-32.6-20.699-50.422c-5.568-19.411-1.139-31.163,16.329-41.221c15.457-8.903,36.987-9.938,53.194-2.296
			c30.844,14.542,35.874,82.558-6.754,82.584C99.45,90.011,89.981,67.975,88.966,53.116c-0.95-13.896,13.891-34.108,27.87-19.395
			c12.815,13.487-9.338,23.715-3.18,37.773c3.112,7.104,11.349,3.087,15.338-0.551c7.236-6.598,5.615-19.816,4.911-28.505
			c-1.144-14.103-19.013-32.252-34.47-26.484c-7.96,2.969-13.88,2.749-19.349,10.541c-6.146,8.756-5.397,19.893-3.891,29.984
			c2.736,18.327,18.841,32.535,22.132,51.519c3.207,18.496-11.199,31.802-28.181,36.515c-25.373,7.033-58.416,0.815-65.341-28.476
			C1.963,104.01,1.233,87.058,6.578,75.633c5.877-12.562,22.236-20.231,35.548-14.279c17.067,7.625,29.717,50.029,7.024,57.932
			c-10.868,3.785-22.309-4.848-19.776-16.741C31.812,91.095,41.554,88.213,33.883,75.261C33.501,75.228,34.599,76.471,33.883,75.261
			z"/>
	</g>
</g>
<g id="astonishment" display="none">
	<g display="inline">
		<path fill-rule="evenodd" d="M53.927,78.896c0.022-14.309,2.425-28.133,10.013-40.466c9.375-15.237,21.484-27.659,38.835-33.766
			c8.132-2.862,16.486-3.059,24.504,0.463c7.633,3.353,12.077,9.546,12.974,17.747c0.943,8.627-4.253,14.395-10.908,18.523
			c-15.186,9.418-26.107,23.301-38.532,35.636c-7.521,7.465-13.17,16.388-20.007,24.356c-5.011,5.84-9.955,4.806-13.29-2.248
			C54.965,93.747,53.955,88.004,53.927,78.896z"/>
		<path fill-rule="evenodd" d="M59.711,147.47c-9.525,0.612-18.173-8.038-18.058-17.97c0.118-10.277,7.383-17.972,18.395-18.118
			c10.515-0.14,18.275,7.808,18.269,18.475C78.312,139.925,70.339,147.472,59.711,147.47z"/>
		<path fill-rule="evenodd" d="M41.41,38.487c-7.014-0.024-17.134-7.271-19.188-13.92c-1.18-3.822-0.702-7.395,2.576-10.157
			c3.104-2.617,8.986-2.895,13.042-0.174c4.957,3.325,8.928,7.655,11.095,13.346C51.213,33.57,47.757,38.508,41.41,38.487z"/>
		<path fill-rule="evenodd" d="M27.086,61.992c-4.265-0.976-8.95-0.035-12.771-3.178c-2.909-2.394-5.407-5.078-4.485-9.003
			c1.057-4.499,4.746-6.646,9.042-7.025c6.634-0.586,12.601,1.561,17.575,5.993c3.589,3.197,2.083,9.861-2.635,11.773
			C31.709,61.403,29.5,62.246,27.086,61.992z"/>
		<path fill-rule="evenodd" d="M14.283,83.215c0.955-9.263,15.285-11.873,21.753-8.274c5.384,2.995,6.316,9.041,1.634,12.917
			c-4.544,3.763-10.016,5.051-15.746,3.812C17.918,90.802,14.542,88.698,14.283,83.215z"/>
	</g>
</g>
<g id="level" display="none">
	<g display="inline">
		<path fill-rule="evenodd" d="M98.195,147.452c-6,0.22-11.489-0.389-16.973-0.435c-15.782-0.13-31.473-1.735-47.214-2.456
			c-7.285-0.334-15.005,0.344-21.641-4.365c-6.603-4.685-8.569-11.249-7.74-18.665c0.815-7.286,1.436-14.595,2.588-21.864
			c2.564-16.185,6.087-32.154,10.217-47.975c4.183-16.019,8.325-32.074,14.142-47.617c0.194-0.52,0.553-0.978,0.899-1.575
			c8.888,1.49,17.674,2.962,27.121,4.545c-2.727,35.232-13.553,69.021-18.208,103.975c19.979,1.742,40.293,1.96,60.664,5.021
			C100.741,126.711,99.498,136.834,98.195,147.452z"/>
		<path fill-rule="evenodd" d="M77.604,54.015c5.657-3.183,10.71-6.024,15.891-8.939c5.487,9.639,10.926,19.191,16.593,29.146
			c5.765-9.714,11.338-19.109,16.948-28.567c6.315,4.64,12.284,9.025,18.515,13.603c-9.391,19.804-21.88,37.397-37.473,53.357
			C94.52,94.999,84.408,75.5,77.604,54.015z"/>
	</g>
</g>
<g id="Layer_15">
	<path fill-rule="evenodd" fill="#FFFFFF" d="M45.719,54.985c4.348-3.6,10.094-11.699,12.61-17.976
		c3.957-9.876,7.978-19.943,12.015-29.797c2.557-6.282,6.755-6.282,9.312,0c4.038,9.854,8.059,19.921,12.016,29.798
		c2.516,6.277,8.262,14.377,12.609,17.976c6.888,5.737,13.399,11.151,19.256,15.507c3.648,2.784,3.648,6.231,0,9.014
		c-5.856,4.355-12.368,9.77-19.256,15.507c-4.348,3.6-10.094,11.698-12.609,17.975c-3.957,9.877-7.978,19.944-12.016,29.801
		c-2.557,6.281-6.754,6.281-9.311,0c-4.038-9.856-8.058-19.924-12.015-29.801c-2.516-6.276-8.262-14.375-12.61-17.976
		c-6.887-5.737-13.398-11.15-19.255-15.507c-3.649-2.782-3.649-6.229,0-9.014C32.321,66.136,38.832,60.722,45.719,54.985z"/>
</g>
</svg>
